<?xml version="1.0" standalone="no"?>
<!DOCTYPE svg PUBLIC "-//W3C//DTD SVG 20010904//EN"
 "http://www.w3.org/TR/2001/REC-SVG-20010904/DTD/svg10.dtd">
<svg version="1.0" xmlns="http://www.w3.org/2000/svg"
 width="512.000000pt" height="512.000000pt" viewBox="0 0 512.000000 512.000000"
 preserveAspectRatio="xMidYMid meet">
<metadata>
Created by potrace 1.14, written by Peter Selinger 2001-2017
</metadata>
<g transform="translate(0.000000,512.000000) scale(0.100000,-0.100000)"
fill="#000000" stroke="none">
<path d="M2369 5116 c-2 -2 -35 -7 -74 -10 -38 -4 -83 -9 -100 -12 -16 -3 -49
-6 -72 -7 -24 -1 -43 -6 -43 -11 0 -5 -8 -2 -17 5 -9 8 -14 9 -10 3 4 -6 -30
-19 -91 -33 -53 -13 -143 -38 -200 -57 -88 -30 -106 -33 -120 -22 -15 12 -16
11 -3 -4 9 -12 10 -18 2 -19 -21 -3 -26 -5 -85 -32 -33 -15 -66 -25 -73 -23
-7 3 -12 2 -10 -2 1 -4 -1 -8 -5 -10 -5 -1 -23 -10 -40 -20 -18 -10 -62 -34
-98 -53 -36 -18 -69 -37 -75 -41 -5 -4 -66 -45 -135 -90 -68 -46 -133 -91
-143 -101 -10 -10 -23 -15 -29 -11 -6 4 -8 3 -5 -3 4 -6 -5 -20 -18 -33 -21
-20 -27 -21 -42 -9 -16 13 -17 12 -5 -2 11 -14 7 -21 -25 -49 -58 -49 -188
-176 -191 -186 -8 -21 -90 -103 -97 -96 -5 4 -6 2 -2 -3 4 -8 -44 -80 -121
-180 -4 -5 -19 -28 -32 -50 -13 -22 -28 -41 -32 -43 -4 -2 -8 -8 -8 -12 0 -19
-67 -119 -75 -112 -5 4 -5 1 -1 -5 4 -7 -9 -43 -28 -80 -28 -56 -62 -128 -71
-153 -1 -3 -5 -12 -8 -20 -26 -59 -85 -239 -80 -244 4 -3 1 -6 -5 -6 -7 0 -11
-3 -11 -7 5 -28 -2 -53 -13 -47 -6 4 -8 3 -4 -4 3 -6 1 -32 -5 -59 -6 -26 -12
-57 -15 -68 -2 -11 -6 -31 -9 -45 -7 -37 -16 -91 -20 -125 -2 -16 -7 -59 -12
-95 -15 -122 -8 -547 11 -640 3 -14 8 -41 10 -60 8 -54 15 -87 42 -195 14 -55
27 -107 29 -115 2 -8 4 -16 5 -17 2 -2 4 -7 5 -13 1 -5 4 -12 5 -15 1 -3 3 -8
4 -12 2 -10 18 -52 63 -168 67 -169 176 -365 310 -555 45 -65 166 -204 248
-285 365 -365 809 -604 1310 -704 188 -38 274 -45 500 -46 204 0 270 5 463 36
71 11 257 58 347 88 847 278 1494 990 1690 1859 31 135 35 161 52 317 12 109
9 480 -6 575 -47 313 -119 556 -238 800 -201 412 -505 759 -889 1015 -98 65
-222 138 -279 164 -11 5 -49 22 -85 39 -130 59 -352 135 -413 141 -5 1 -6 5
-3 9 2 4 -11 6 -30 4 -19 -2 -34 0 -34 4 0 5 -12 10 -27 11 -83 7 -172 27
-166 37 4 6 0 6 -9 -1 -8 -7 -17 -11 -19 -8 -11 10 -99 16 -310 20 -125 2
-228 2 -230 1z"/>
</g>
</svg>
